# xmcd
#
# Track frame offsets:
#	150
#	11350
#	24140
#	35447
#	44385
#	54480
#	68135
#	79407
#	91005
#	99735
#	109805
#	122235
#	133997
#	146132
#	159565
#	171067
#	182430
#	194635
#	207150
#	217807
#	229537
#	240160
#	253947
#	264507
#	277637
#	285087
#	298737
#
# Disc length: 4134 seconds
#
# Revision: 0
# Processed by: cddbd v1.5.2PL0 Copyright (c) Steve Scherf et al.
# Submitted via: dBpowerAMP V4.0
#
DISCID=7610241b
DTITLE=Various Artist - Red Hot Jumpin' Blues
DYEAR=1900
DGENRE=Blues
TTITLE0=John Lee Hooker - Boom Boom
TTITLE1=Elmore James - Dust My Broom
TTITLE2=Albert Williams - Rhumba Chillen
TTITLE3=Roscoe Gordon - I'm Gonna Shake It
TTITLE4=Willie Egans - Wow Wow
TTITLE5=Little Walter - Flying Saucer
TTITLE6=Elmore James - Shake Your Moneymaker
TTITLE7=Big Jay - Nervous Man Nervous
TTITLE8=Bunker Hill - The Girl Can't Dance
TTITLE9=Bunker Hill - Red Riding Hood
TTITLE10=Bob Gaddy - Slow Down Baby
TTITLE11=Buddy Lucas - Night Train
TTITLE12=Arthur 'Big Boy' Crudup - Shout Sister Shout
TTITLE13=Arthur 'Big Boy' Crudup - I Want My Lovin'
TTITLE14=Elmore James - Elmo's Shuffle
TTITLE15=Elmore James - Hawaiin Boogie Part 1
TTITLE16=Champion Jack Dupree - Shim Sham Shimmy
TTITLE17=Bo Diddley - Mumblin' Guitar
TTITLE18=Tender Slim - Don't Cut Out On Me
TTITLE19=Freddy King - That's What You Think
TTITLE20=Eddie Hope - A Fool No More
TTITLE21=The Sly Fox - My Four Women
TTITLE22=Johnny O'Neal - Ugly Woman
TTITLE23=Little Walter - It Ain't Right
TTITLE24=Slim Harpo - Bobby Sox Baby
TTITLE25=Robins - Riot In Cell Block No 9
TTITLE26=Slim Harpo - Rainin' In My Heart
EXTD=
EXTT0=
EXTT1=
EXTT2=
EXTT3=
EXTT4=
EXTT5=
EXTT6=
EXTT7=
EXTT8=
EXTT9=
EXTT10=
EXTT11=
EXTT12=
EXTT13=
EXTT14=
EXTT15=
EXTT16=
EXTT17=
EXTT18=
EXTT19=
EXTT20=
EXTT21=
EXTT22=
EXTT23=
EXTT24=
EXTT25=
EXTT26=
PLAYORDER=
